<svg width="86" height="86" viewBox="0 0 86 86" fill="none" xmlns="http://www.w3.org/2000/svg">
<g filter="url(#filter0_d_1_7871)">
<circle cx="43" cy="43" r="29" fill="white"/>
</g>
<path fill-rule="evenodd" clip-rule="evenodd" d="M57 43C57 43.2652 56.8946 43.5196 56.7071 43.7071C56.5196 43.8946 56.2652 44 56 44L32.414 44L38.708 50.292C38.8958 50.4798 39.0013 50.7344 39.0013 51C39.0013 51.2655 38.8958 51.5202 38.708 51.708C38.5202 51.8958 38.2656 52.0012 38 52.0012C37.7344 52.0012 37.4798 51.8958 37.292 51.708L29.292 43.708C29.1989 43.6151 29.125 43.5047 29.0746 43.3832C29.0242 43.2618 28.9982 43.1315 28.9982 43C28.9982 42.8684 29.0242 42.7382 29.0746 42.6167C29.125 42.4952 29.1989 42.3849 29.292 42.292L37.292 34.292C37.4798 34.1042 37.7344 33.9987 38 33.9987C38.2656 33.9987 38.5202 34.1042 38.708 34.292C38.8958 34.4798 39.0013 34.7344 39.0013 35C39.0013 35.2655 38.8958 35.5202 38.708 35.708L32.414 42L56 42C56.2652 42 56.5196 42.1053 56.7071 42.2929C56.8946 42.4804 57 42.7348 57 43Z" fill="#00C48C"/>
<defs>
<filter id="filter0_d_1_7871" x="0" y="0" width="86" height="86" filterUnits="userSpaceOnUse" color-interpolation-filters="sRGB">
<feFlood flood-opacity="0" result="BackgroundImageFix"/>
<feColorMatrix in="SourceAlpha" type="matrix" values="0 0 0 0 0 0 0 0 0 0 0 0 0 0 0 0 0 0 127 0" result="hardAlpha"/>
<feOffset/>
<feGaussianBlur stdDeviation="7"/>
<feComposite in2="hardAlpha" operator="out"/>
<feColorMatrix type="matrix" values="0 0 0 0 0 0 0 0 0 0 0 0 0 0 0 0 0 0 0.1 0"/>
<feBlend mode="normal" in2="BackgroundImageFix" result="effect1_dropShadow_1_7871"/>
<feBlend mode="normal" in="SourceGraphic" in2="effect1_dropShadow_1_7871" result="shape"/>
</filter>
</defs>
</svg>
